<svg xmlns="http://www.w3.org/2000/svg" fill="none" viewBox="0 0 24 24" height="24" width="24">
  <g id="image">
    <path id="Union" fill="#000000" d="M19 3c1.1046 0 2 0.89543 2 2v14c0 1.1046 -0.8954 2 -2 2H5c-1.10457 0 -2 -0.8954 -2 -2V5c0 -1.10457 0.89543 -2 2 -2zM5 19h14V5H5zm8.8496 -6.4668c0.2 -0.2667 0.6008 -0.2667 0.8008 0l2.75 3.667c0.2468 0.3296 0.0115 0.7998 -0.4004 0.7998H7c-0.41189 0 -0.64722 -0.4702 -0.40039 -0.7998l2 -2.667c0.2 -0.2667 0.60078 -0.2667 0.80078 0L11.25 16z" stroke-width="1"></path>
  </g>
</svg>